# Blender v2.76 (sub 0) OBJ File: ''
# www.blender.org
o Cube_Cube.001
v -1.000000 -1.000000 1.000000
v -1.000000 1.000000 1.000000
v -1.000000 -1.000000 -1.000000
v -1.000000 1.000000 -1.000000
v 1.000000 -1.000000 1.000000
v 1.000000 1.000000 1.000000
v 1.000000 -1.000000 -1.000000
v 1.000000 1.000000 -1.000000
vt 0.666467 0.000200
vt 0.666467 0.333134
vt 0.333533 0.333134
vt 0.000200 0.333533
vt 0.333134 0.333533
vt 0.333134 0.666467
vt 0.666866 0.666467
vt 0.666866 0.333533
vt 0.999800 0.333533
vt 0.000200 0.333134
vt 0.000200 0.000200
vt 0.333134 0.000200
vt 0.000200 0.666866
vt 0.333134 0.666866
vt 0.333134 0.999800
vt 0.999800 0.333134
vt 0.666866 0.333134
vt 0.666866 0.000200
vt 0.333533 0.000200
vt 0.000200 0.666467
vt 0.999800 0.666467
vt 0.333134 0.333134
vt 0.000200 0.999800
vt 0.999800 0.000200
vn -1.000000 0.000000 0.000000
vn 0.000000 0.000000 -1.000000
vn 1.000000 0.000000 0.000000
vn 0.000000 0.000000 1.000000
vn 0.000000 -1.000000 0.000000
vn 0.000000 1.000000 0.000000
s off
f 4/1/1 3/2/1 1/3/1
f 8/4/2 7/5/2 3/6/2
f 6/7/3 5/8/3 7/9/3
f 2/10/4 1/11/4 5/12/4
f 3/13/5 7/14/5 5/15/5
f 8/16/6 4/17/6 2/18/6
f 2/19/1 4/1/1 1/3/1
f 4/20/2 8/4/2 3/6/2
f 8/21/3 6/7/3 7/9/3
f 6/22/4 2/10/4 5/12/4
f 1/23/5 3/13/5 5/15/5
f 6/24/6 8/16/6 2/18/6
